<?xml version="1.0" encoding="utf-8"?>
<!-- Generator: Adobe Illustrator 19.2.1, SVG Export Plug-In . SVG Version: 6.00 Build 0)  -->
<svg version="1.1" xmlns="http://www.w3.org/2000/svg" xmlns:xlink="http://www.w3.org/1999/xlink" x="0px" y="0px"
	 viewBox="0 0 1008 612" style="enable-background:new 0 0 1008 612;" xml:space="preserve">
<style type="text/css">
	.st0{display:none;}
	.st1{display:inline;}
	.st2{enable-background:new    ;}
	.st3{fill:#414042;}
	.st4{display:inline;fill:none;stroke:#F7941E;stroke-width:11;stroke-miterlimit:10;}
	.st5{fill:#414042;stroke:#FFFFFF;stroke-width:10.6452;stroke-miterlimit:10;}
	.st6{fill:none;stroke:#F7941E;stroke-width:11;stroke-miterlimit:10;}
</style>
<g id="Capa_1" class="st0">
	<g class="st1">
		<g id="CREDIT_CARD_2_" class="st2">
			<g id="CREDIT_CARD_3_">
				<g>
					<path class="st3" d="M357.7,357c0,6.6,5.3,11.9,11.9,11.9h230.9c6.6,0,11.9-5.3,11.9-11.9v-91.5H357.7V357z M381.5,309.2H501
						v11.9H381.5V309.2z M381.5,333.1h47.8V345h-47.8V333.1z M600.5,193.8H369.6c-6.6,0-11.9,5.3-11.9,11.9v35.8h254.7v-35.8
						C612.4,199.1,607.1,193.8,600.5,193.8z"/>
				</g>
			</g>
		</g>
	</g>
	<circle class="st4" cx="485" cy="281.4" r="202.8"/>
</g>
<g id="Capa_2" class="st0">
	<circle class="st4" cx="489.9" cy="281.4" r="202.8"/>
	<g class="st1">
		<circle class="st3" cx="459" cy="265.2" r="86.6"/>
		<circle class="st5" cx="520.9" cy="315.3" r="86.6"/>
	</g>
</g>
<g id="Capa_3">
	<circle class="st6" cx="489.9" cy="275.1" r="202.8"/>
	<g id="dSElQz.tif">
		<g>
			<path class="st3" d="M480.5,160.4c6.3,0,12.5,0,18.8,0c3.8,0.4,7.7,0.9,11.5,1.3c13.5,1.6,26.6,4.9,39,10.8
				c8.6,4.1,16.4,9.3,21.8,17.4c5,7.6,5.9,15.6,1.7,23.9c-4,7.9-10.6,13.2-18,17.5c-14.6,8.5-30.7,12.3-47.4,14.1
				c-13,1.4-26,1.3-39.1-0.4c-13.6-1.7-26.8-4.9-39.1-11c-12.1-6-22.8-13.6-25.8-28c0-1.8,0-3.6,0-5.4c0.2-0.9,0.5-1.9,0.7-2.8
				c2.3-8.5,8-14.4,14.9-19.2c14.7-10.2,31.4-14.6,48.8-17C472.4,161.2,476.5,160.8,480.5,160.4z M496.7,225.6
				c0.8-0.1,1.3-0.2,1.8-0.2c5.5-0.8,11.1-1.3,16.6-2.3c4.4-0.9,8.6-2.6,11.9-5.8c3.6-3.4,3.6-8.3-0.4-11.1c-2.8-2-6.1-3.7-9.4-4.4
				c-9.8-2.1-19.8-3.7-29.6-5.5c-2.2-0.4-4.4-0.7-6.5-1.6c-1.2-0.5-2.8-1.8-2.9-2.8c-0.1-1,1.6-2.2,2.5-3.2c0.1-0.1,0.3-0.2,0.4-0.2
				c7.9-2.5,16-2.8,23,1.9c3.5,2.4,6.4,2.6,10,1.7c0.6-0.1,1.2-0.2,1.8-0.3c3.3-0.6,6.7-1.1,10.6-1.8c-1.6-1.5-2.7-2.7-4.1-3.6
				c-7.7-5.2-16.6-5.8-25.6-6.6c0-1.7,0-3.3,0-4.9c-4.6,0-8.9,0-13.5,0c0,1.7,0,3.2,0,4.8c-3.7,0.5-7.3,0.8-10.8,1.4
				c-5.8,1-11.4,2.5-15.8,6.7c-3.5,3.3-3.5,7.8,0.4,10.6c2.7,2,5.9,3.8,9.1,4.5c9.2,2,18.4,3.4,27.7,5.1c3.2,0.6,6.5,1.2,9.5,2.3
				c2.8,1,2.9,3.7,0.4,5.3c-1.2,0.8-2.7,1.4-4.1,1.7c-5.9,1.2-11.9,1.2-17.8,0.2c-3.3-0.6-6.8-1.3-8.9-4.1c-1.5-2-3-2.3-5.2-2
				c-5.7,0.7-11.3,1.2-17.6,1.9c8.8,11.1,21.2,11,33.2,12.4c0,2.1,0,4.1,0,6.2c4.5,0,8.9,0,13.4,0
				C496.7,229.8,496.7,227.8,496.7,225.6z"/>
			<path class="st3" d="M403.9,228.9c0.4-1.3,0.9-2.6,1.5-4.3c1.3,1.4,2.4,2.7,3.7,3.9c9.3,8.7,20.5,14.1,32.4,17.9
				c18.6,5.9,37.7,7.9,57.2,6.9c15.9-0.8,31.4-3.5,46.2-9.2c10.9-4.2,20.9-9.8,28.9-18.6c0.2-0.2,0.4-0.3,0.8-0.6
				c2.2,5.8,1.7,11.4-0.8,16.8c-3.9,8.4-10.7,13.8-18.4,18.3c-11.7,6.8-24.4,10.6-37.6,12.8c-22.9,3.8-45.6,3.1-68.1-2.7
				c-12-3.1-23.3-7.7-33.1-15.6c-6.4-5.2-11-11.5-12.6-19.7C403.9,232.8,403.9,230.9,403.9,228.9z"/>
			<path class="st3" d="M403.9,257.6c0.4-1.3,0.9-2.6,1.5-4.3c1.3,1.4,2.4,2.7,3.7,3.9c9.3,8.7,20.5,14.1,32.4,17.9
				c18.6,5.9,37.7,7.9,57.2,6.9c15.9-0.8,31.4-3.5,46.2-9.2c10.9-4.2,20.9-9.8,28.9-18.6c0.2-0.2,0.4-0.3,0.8-0.6
				c2.2,5.8,1.7,11.4-0.8,16.8c-3.9,8.4-10.7,13.8-18.4,18.3c-11.7,6.8-24.4,10.6-37.6,12.8c-22.9,3.8-45.6,3.1-68.1-2.7
				c-12-3.1-23.3-7.7-33.1-15.6c-6.4-5.2-11-11.5-12.6-19.7C403.9,261.5,403.9,259.5,403.9,257.6z"/>
			<path class="st3" d="M403.9,286.3c0.4-1.3,0.9-2.6,1.5-4.3c1.3,1.4,2.4,2.7,3.7,3.9c9.3,8.7,20.5,14.1,32.4,17.9
				c18.6,5.9,37.7,7.9,57.2,6.9c15.9-0.8,31.4-3.5,46.2-9.2c10.9-4.2,20.9-9.8,28.9-18.6c0.2-0.2,0.4-0.3,0.8-0.6
				c2.2,5.8,1.7,11.4-0.8,16.8c-3.9,8.4-10.7,13.8-18.4,18.3c-11.7,6.8-24.4,10.6-37.6,12.8c-22.9,3.8-45.6,3.1-68.1-2.7
				c-12-3.1-23.3-7.7-33.1-15.6c-6.4-5.2-11-11.5-12.6-19.7C403.9,290.1,403.9,288.2,403.9,286.3z"/>
			<path class="st3" d="M403.9,314.9c0.4-1.3,0.9-2.6,1.5-4.3c1.3,1.4,2.4,2.7,3.7,3.9c9.3,8.7,20.5,14.1,32.4,17.9
				c18.6,5.9,37.7,7.9,57.2,6.9c15.9-0.8,31.4-3.5,46.2-9.2c10.9-4.2,20.9-9.8,28.9-18.6c0.2-0.2,0.4-0.3,0.8-0.6
				c2.2,5.8,1.7,11.4-0.8,16.8c-3.9,8.4-10.7,13.8-18.4,18.3c-11.7,6.8-24.4,10.6-37.6,12.8c-22.9,3.8-45.6,3.1-68.1-2.7
				c-12-3.1-23.3-7.7-33.1-15.6c-6.4-5.2-11-11.5-12.6-19.7C403.9,318.8,403.9,316.9,403.9,314.9z"/>
			<path class="st3" d="M403.9,343.6c0.4-1.3,0.9-2.6,1.5-4.3c1.3,1.4,2.4,2.7,3.7,3.9c9.3,8.7,20.4,14.1,32.4,17.9
				c18.6,5.9,37.7,7.9,57.2,6.9c15.9-0.8,31.4-3.5,46.2-9.2c10.9-4.2,20.9-9.8,28.9-18.6c0.2-0.2,0.5-0.4,0.8-0.6
				c2.2,5.8,1.7,11.4-0.8,16.8c-3.9,8.4-10.7,13.8-18.4,18.3c-11.7,6.8-24.4,10.6-37.6,12.8c-5.4,0.9-10.8,1.3-16.2,1.9
				c-0.7,0.1-1.4,0.3-2.2,0.4c-6.3,0-12.5,0-18.8,0c-3.8-0.4-7.7-0.9-11.5-1.3c-13.5-1.6-26.7-4.8-38.9-10.8
				c-12.2-6-23.1-13.6-26.2-28.2C403.9,347.5,403.9,345.6,403.9,343.6z"/>
		</g>
	</g>
</g>
</svg>
