<?xml version="1.0" encoding="utf-8"?>
<!-- Generator: Adobe Illustrator 19.2.1, SVG Export Plug-In . SVG Version: 6.00 Build 0)  -->
<svg version="1.1" id="Capa_1" xmlns="http://www.w3.org/2000/svg" xmlns:xlink="http://www.w3.org/1999/xlink" x="0px" y="0px"
	 viewBox="0 0 479 202" style="enable-background:new 0 0 479 202;" xml:space="preserve">
<style type="text/css">
	.st0{fill:#FFFFFF;}
	.st1{font-family:'TrebuchetMS-Bold';}
	.st2{font-size:52.5091px;}
	.st3{font-family:'TrebuchetMS-Italic';}
	.st4{font-size:19.4935px;}
</style>
<g>
	<path class="st0" d="M94.1,70.7c-0.2,0.3-0.4,0.5-0.9,0.7c-0.4,0.2-0.9,0.3-1.3,0.3c-0.9,0-1.5-0.2-2-0.6s-0.8-1-0.8-1.8
		c0-0.9,0.3-1.6,1-2.1c0.7-0.6,1.7-0.8,3-0.8c0.2,0,0.5,0.1,0.8,0.1c0-0.9-0.6-1.4-1.8-1.4c-0.7,0-1.3,0.1-1.8,0.4l-0.4-1.4
		c0.6-0.3,1.4-0.4,2.3-0.4c1.2,0,2.1,0.3,2.6,0.8s0.8,1.6,0.8,3.1v1.7c0,1.1,0.2,1.7,0.6,2c-0.1,0.3-0.3,0.4-0.5,0.5
		s-0.4,0.1-0.6,0.1s-0.5-0.1-0.7-0.3C94.3,71.1,94.1,70.9,94.1,70.7z M93.9,67.7c-0.3-0.1-0.6-0.1-0.7-0.1c-1.4,0-2.2,0.5-2.2,1.4
		c0,0.7,0.4,1.1,1.3,1.1c1.1,0,1.7-0.6,1.7-1.7L93.9,67.7L93.9,67.7z"/>
	<path class="st0" d="M103.2,71.5V71c-0.1,0.2-0.4,0.3-0.8,0.4c-0.4,0.1-0.8,0.2-1.1,0.2c-1.1,0-1.9-0.4-2.6-1.1
		c-0.6-0.7-0.9-1.7-0.9-3c0-1.3,0.4-2.3,1.1-3.1c0.8-0.8,1.6-1.2,2.8-1.2c0.6,0,1.1,0.1,1.6,0.4v-3.1l1.8-0.4v11.4H103.2z
		 M103.2,65.4c-0.4-0.3-0.8-0.5-1.3-0.5c-0.8,0-1.3,0.3-1.7,0.7c-0.4,0.4-0.6,1.1-0.6,1.9c0,1.6,0.8,2.4,2.4,2.4
		c0.2,0,0.4-0.1,0.6-0.2s0.4-0.2,0.5-0.3L103.2,65.4L103.2,65.4z"/>
	<path class="st0" d="M106.7,71l0.6-1.4c0.6,0.4,1.2,0.6,1.9,0.6s1.1-0.3,1.1-0.8c0-0.3-0.1-0.6-0.3-0.8s-0.6-0.4-1.3-0.7
		c-1.4-0.6-2.1-1.4-2.1-2.4c0-0.7,0.3-1.2,0.8-1.6c0.5-0.4,1.2-0.6,2-0.6c0.8,0,1.6,0.2,2.3,0.6l-0.6,1.4c-0.4-0.3-0.9-0.5-1.7-0.5
		c-0.6,0-0.9,0.3-0.9,0.8c0,0.2,0.1,0.4,0.3,0.6c0.2,0.2,0.7,0.4,1.4,0.6s1.2,0.6,1.5,1c0.3,0.4,0.4,0.9,0.4,1.4
		c0,0.8-0.3,1.3-0.8,1.8s-1.3,0.6-2.2,0.6c-0.5,0-0.9-0.1-1.3-0.1C107.6,71.4,107.2,71.2,106.7,71z"/>
	<path class="st0" d="M119.2,71.5v-0.7c-0.3,0.3-0.6,0.4-1.1,0.6s-0.9,0.3-1.3,0.3c-1.8,0-2.8-1-2.8-3v-5.2h1.9v5
		c0,1,0.4,1.5,1.4,1.5c0.4,0,0.8-0.1,1.2-0.3c0.4-0.2,0.6-0.4,0.7-0.8v-5.5h1.9v7.9L119.2,71.5L119.2,71.5z"/>
	<path class="st0" d="M132.6,71.5v-5c0-1.1-0.4-1.6-1.4-1.6c-0.3,0-0.6,0.1-0.8,0.3s-0.4,0.4-0.6,0.6v5.7H128v-5.3
		c0-0.4-0.1-0.7-0.4-0.9c-0.3-0.2-0.6-0.3-1.1-0.3c-0.3,0-0.5,0.1-0.8,0.3s-0.5,0.4-0.6,0.6v5.7h-1.8v-8h1.3l0.4,0.7
		c0.5-0.6,1.2-0.8,2-0.8c1.1,0,1.8,0.3,2.4,0.9c0.3-0.3,0.6-0.4,0.9-0.6c0.4-0.1,0.8-0.3,1.3-0.3c0.9,0,1.6,0.3,2.1,0.8
		c0.5,0.5,0.8,1.2,0.8,2.1v5.2L132.6,71.5L132.6,71.5z"/>
</g>
<text transform="matrix(1 0 0 1 84.4658 114.0654)" class="st0 st1 st2">Points</text>
<circle class="st0" cx="269.5" cy="93.5" r="9.7"/>
<path class="st0" d="M269.5,76.2c9.5,0,17.3,7.7,17.3,17.3s-7.7,17.3-17.3,17.3c-9.5,0-17.3-7.7-17.3-17.3S259.9,76.2,269.5,76.2
	 M269.5,68.1c-14.1,0-25.4,11.4-25.4,25.4s11.4,25.4,25.4,25.4c14.1,0,25.4-11.4,25.4-25.4S283.5,68.1,269.5,68.1L269.5,68.1z"/>
<g>
	<path class="st0" d="M302.1,101.4c-3.6,14.8-16.8,25.8-32.7,25.8c-12.9,0-24.2-7.4-29.8-18.2v13.8c7.6,7.7,18.2,12.6,29.8,12.6
		c13.3,0,25-6.2,32.7-15.8V101.4z"/>
	<path class="st0" d="M239.6,78.1c5.6-10.8,16.9-18.2,29.8-18.2c15.8,0,29.1,11,32.7,25.8V67.5c-7.7-9.6-19.4-15.8-32.7-15.8
		c-11.7,0-22.2,4.8-29.8,12.6V78.1z"/>
</g>
<text transform="matrix(1 0 0 1 311.5615 89.0791)" class="st0 st3 st4">Loyalty</text>
<text transform="matrix(1 0 0 1 311.5615 112.9502)" class="st0 st3 st4">solutions</text>
</svg>
