<svg id="Capa_1" data-name="Capa 1" xmlns="http://www.w3.org/2000/svg" viewBox="0 0 20.45 5.6"><defs><style>.cls-1,.cls-2,.cls-3{fill:#3a3a3a;}.cls-2,.cls-3{isolation:isolate;font-family:Trebuchet MS;}.cls-2{font-size:3.51px;font-weight:700;}.cls-3{font-size:1.3px;font-style:italic;}</style></defs><title>Points-negro</title><path class="cls-1" d="M28.49,10.52a0.11,0.11,0,0,1-.06,0l-0.09,0a0.2,0.2,0,0,1-.13,0,0.15,0.15,0,0,1-.05-0.12,0.16,0.16,0,0,1,.07-0.14,0.3,0.3,0,0,1,.2-0.05h0.05a0.1,0.1,0,0,0-.12-0.09,0.23,0.23,0,0,0-.12,0l0-.09a0.35,0.35,0,0,1,.15,0,0.25,0.25,0,0,1,.17.05,0.31,0.31,0,0,1,.05.21v0.11a0.16,0.16,0,0,0,0,.13,0.05,0.05,0,0,1,0,0h0l0,0S28.49,10.53,28.49,10.52Zm0-.2h0c-0.09,0-.15,0-0.15.09a0.07,0.07,0,0,0,.09.07,0.1,0.1,0,0,0,.11-0.11v0h0Z" transform="translate(-27.85 -9.25)"/><path class="cls-1" d="M29.1,10.58v0a0.08,0.08,0,0,1-.05,0H29a0.23,0.23,0,0,1-.17-0.07,0.35,0.35,0,0,1,0-.41A0.24,0.24,0,0,1,29,10a0.2,0.2,0,0,1,.11,0V9.84l0.12,0v0.76H29.1Zm0-.41a0.14,0.14,0,0,0-.09,0,0.15,0.15,0,0,0-.11,0,0.18,0.18,0,0,0,0,.13,0.14,0.14,0,0,0,.16.16h0l0,0V10.17h0Z" transform="translate(-27.85 -9.25)"/><path class="cls-1" d="M29.33,10.54l0-.09a0.22,0.22,0,0,0,.13,0,0.06,0.06,0,0,0,.07-0.05,0.08,0.08,0,0,0,0-.05l-0.09,0a0.19,0.19,0,0,1-.14-0.16,0.13,0.13,0,0,1,.05-0.11,0.21,0.21,0,0,1,.13,0,0.31,0.31,0,0,1,.15,0l0,0.09a0.18,0.18,0,0,0-.11,0,0.05,0.05,0,0,0-.06.05,0.06,0.06,0,0,0,0,0l0.09,0a0.19,0.19,0,0,1,.1.07,0.15,0.15,0,0,1,0,.09,0.16,0.16,0,0,1-.05.12,0.2,0.2,0,0,1-.15,0H29.41Z" transform="translate(-27.85 -9.25)"/><path class="cls-1" d="M30.17,10.58v0l-0.07,0-0.09,0a0.17,0.17,0,0,1-.19-0.2V10h0.13v0.33a0.08,0.08,0,0,0,.09.1l0.08,0a0.07,0.07,0,0,0,0-.05V10H30.3v0.53H30.17Z" transform="translate(-27.85 -9.25)"/><path class="cls-1" d="M31.07,10.58V10.24A0.09,0.09,0,0,0,31,10.13l-0.05,0,0,0v0.38H30.76V10.22a0.07,0.07,0,0,0,0-.06l-0.07,0-0.05,0,0,0v0.38H30.44V10h0.09l0,0A0.16,0.16,0,0,1,30.69,10a0.21,0.21,0,0,1,.16.06l0.06,0L31,10a0.18,0.18,0,0,1,.19.19v0.35H31.07Z" transform="translate(-27.85 -9.25)"/><text class="cls-2" transform="translate(0 4.17)">P<tspan x="1.9" y="0">oints</tspan></text><circle class="cls-1" cx="12.38" cy="2.8" r="0.65"/><path class="cls-1" d="M40.22,10.89A1.16,1.16,0,1,1,39.06,12a1.16,1.16,0,0,1,1.16-1.16m0-.54a1.7,1.7,0,1,0,1.7,1.7,1.7,1.7,0,0,0-1.7-1.7h0Z" transform="translate(-27.85 -9.25)"/><path class="cls-1" d="M42.4,12.58a2.25,2.25,0,0,1-4.18.51V14a2.79,2.79,0,0,0,4.18-.21V12.58Z" transform="translate(-27.85 -9.25)"/><path class="cls-1" d="M38.22,11a2.25,2.25,0,0,1,4.18.51V10.31a2.79,2.79,0,0,0-4.18-.21V11h0Z" transform="translate(-27.85 -9.25)"/><text class="cls-3" transform="translate(15.19 2.5)">Loyalty</text><text class="cls-3" transform="translate(15.19 4.1)">solutions</text></svg>