<svg id="Capa_2" data-name="Capa 2" xmlns="http://www.w3.org/2000/svg" viewBox="0 0 266.14 257.79"><defs><style>.cls-1{isolation:isolate;}.cls-2{fill:#fff;}</style></defs><title>usuario</title><g id="USER" class="cls-1"><g id="USER-2" data-name="USER"><path class="cls-2" d="M536.7,348.14s0-45.46-33.21-62c-21-10.46-12.92-2.46-38.73-13.16s-31.92-14.18-31.92-14.18l-0.23-24.51s9.66-7.34,12.68-30.51c6,1.75,8.08-7.07,8.4-12.71,0.36-5.44,3.57-22.41-3.81-20.9,1.51-11.33,2.69-21.57,2.16-27-1.85-19-15-38.9-48.22-40.35-28.24,1.45-46.57,21.34-48.42,40.37-0.53,5.42.55,15.66,2.06,27-7.38-1.53-4.2,15.47-3.88,20.9,0.36,5.63,2.35,14.48,8.4,12.73,3,23.18,12.67,30.57,12.67,30.57l-0.24,24.64s-6.11,3.73-31.92,14.41-17.71,2.22-38.73,12.67c-33.22,16.53-33.22,62-33.22,62h0v0A12.47,12.47,0,0,0,283,360.64H524.22a12.47,12.47,0,0,0,12.48-12.48s0,0,0,0h0Z" transform="translate(-270.56 -102.86)"/></g></g></svg>